<svg xmlns="http://www.w3.org/2000/svg" viewBox="4847 -4447.999 9.284 8.405">
  <defs>
    <style>
      .cls-1 {
        fill: #fff;
      }
    </style>
  </defs>
  <g id="Group_13315" data-name="Group 13315" transform="translate(4299 -4738)">
    <path id="Path_19574" data-name="Path 19574" class="cls-1" d="M-27.839-67.943c0,.307.008.575,0,.842,0,.095-.044.255-.094.267a.386.386,0,0,1-.308-.079c-.542-.522-1.071-1.057-1.6-1.587a.258.258,0,0,1,.009-.423c.527-.521,1.044-1.05,1.575-1.567a.958.958,0,0,1,.3-.132,1.062,1.062,0,0,1,.118.3c.017.255.006.512.006.791a18.586,18.586,0,0,0,2.481-.022,1.478,1.478,0,0,0,.954-2.236.4.4,0,0,1,.084-.626,7.409,7.409,0,0,0,.578-.569c.157-.163.289-.168.432.021a2.965,2.965,0,0,1,.429,3.146,2.931,2.931,0,0,1-2.609,1.862c-.643.048-1.292.011-1.939.012h-.41" transform="translate(579.892 365.234)"/>
    <path id="Path_19575" data-name="Path 19575" class="cls-1" d="M-51.01-14.761c.341,0,.683-.014,1.024,0,.256.014.333-.091.315-.329a3.5,3.5,0,0,1,0-.564c.007-.082.055-.214.107-.227a.345.345,0,0,1,.279.07c.557.541,1.108,1.088,1.642,1.652a.361.361,0,0,1-.016.352c-.528.553-1.073,1.089-1.622,1.622a.326.326,0,0,1-.269.093c-.067-.029-.088-.168-.125-.26a.21.21,0,0,1,0-.07c-.016-.788-.016-.788-.793-.788-.447,0-.895-.012-1.341.005a1.51,1.51,0,0,0-1.278,2.33.373.373,0,0,1-.079.569,6.361,6.361,0,0,0-.58.567c-.189.207-.319.16-.479-.039a3.076,3.076,0,0,1,1.741-4.9,11.179,11.179,0,0,1,1.472-.119l0,.033" transform="translate(602.887 305.884)"/>
  </g>
</svg>
