<svg xmlns="http://www.w3.org/2000/svg" viewBox="-14971 -10415.999 10 10.173">
  <defs>
    <style>
      .cls-1 {
        fill: #5c5050;
      }
    </style>
  </defs>
  <path id="Path_9987" data-name="Path 9987" class="cls-1" d="M-44.2-17.511l-.019-.192h.019c-.008-.029-.019-.057-.027-.086l-.336-3.466-1.117,1.117a5.067,5.067,0,0,0-3.433-1.334A5.087,5.087,0,0,0-54.2-16.385,5.087,5.087,0,0,0-49.116-11.3,5.088,5.088,0,0,0-44.2-15.068h-1.57a3.594,3.594,0,0,1-3.343,2.278,3.6,3.6,0,0,1-3.6-3.6,3.6,3.6,0,0,1,3.6-3.6,3.573,3.573,0,0,1,2.375.9l-1.206,1.206Z" transform="translate(-14916.797 -10394.527)"/>
</svg>
